<?xml version="1.0" encoding="utf-8"?>
<!-- Generator: Adobe Illustrator 27.5.0, SVG Export Plug-In . SVG Version: 6.00 Build 0)  -->
<svg version="1.1" id="Layer_1" xmlns="http://www.w3.org/2000/svg" xmlns:xlink="http://www.w3.org/1999/xlink" x="0px" y="0px"
	 viewBox="0 0 380.3 104.4" style="enable-background:new 0 0 380.3 104.4;" xml:space="preserve">
<style type="text/css">
	
		.st0{fill-rule:evenodd;clip-rule:evenodd;fill:none;stroke:#594A42;stroke-width:4;stroke-linecap:round;stroke-linejoin:round;stroke-miterlimit:10;}
	.st1{fill-rule:evenodd;clip-rule:evenodd;fill:none;stroke:#594A42;stroke-width:4;stroke-linecap:round;stroke-miterlimit:10;}
	.st2{fill:none;stroke:#594A42;stroke-width:4;stroke-miterlimit:10;}
	.st3{fill:none;stroke:#594A42;stroke-width:4;stroke-linecap:round;stroke-linejoin:round;stroke-miterlimit:10;}
	.st4{fill:none;stroke:#594A42;stroke-width:4;stroke-linecap:round;stroke-miterlimit:10;}
	.st5{fill:none;stroke:#594A42;stroke-width:2.5;stroke-linecap:round;stroke-miterlimit:10;}
	.st6{fill:#594A42;}
</style>
<g>
	<path class="st0" d="M356.7,92.2c2.7-2.6,2.8-4.6,3.3-8.5c0.5-3.9-0.3-7.8-2.9-10.2c-1.4-1.3-3.4-2.1-5.9-2.1
		c-1.7,0-3.6,0.3-5.3,0.3c-0.7-5.4-4.8-8.1-6.7-7.8c-0.7,1.5-1.7,4.6,0.7,7.6c-0.5-0.1-1.3-0.1-1.8-0.1c-2.5,0-4.5,0.8-5.9,2.1
		c-2.6,2.4-3.4,6.3-2.9,10.2c0.5,3.9,0.9,5.8,3.6,8.5"/>
	<path class="st1" d="M346.8,71.2c1.7-2.5,3.5-4.1,7.5-5.4"/>
</g>
<path class="st2" d="M1.2,41.8c2,1.3,4.6,2.5,7.8,3.3s6.6,1.3,10.2,1.3c4.2,0,7.7-0.6,10.6-1.9c2.8-1.3,4.9-2.9,6.3-5
	c1.4-2.1,2.1-4.4,2.1-6.9c0-2.2-0.4-4.1-1.3-5.6c-0.9-1.5-2.1-2.7-3.5-3.6c-1.4-0.9-3-1.6-4.7-2.2s-3.4-1-5.2-1.4
	c-1.7-0.4-3.3-0.7-4.7-1.1c-1.4-0.3-2.6-0.8-3.5-1.3c-0.9-0.5-1.3-1.3-1.3-2.3c0-0.7,0.2-1.3,0.7-1.8c0.4-0.6,1.2-1,2.2-1.4
	c1-0.4,2.4-0.5,4-0.5c1.9,0,3.8,0.3,5.8,0.8c2,0.5,4,1.4,6,2.5l3.7-8.9c-2.1-1.3-4.5-2.2-7.2-2.8C26.4,2.3,23.7,2,20.8,2
	c-4.2,0-7.7,0.6-10.5,1.9c-2.8,1.3-4.9,2.9-6.3,5C2.7,11,2,13.3,2,15.8c0,2.3,0.4,4.2,1.3,5.7c0.9,1.5,2,2.7,3.4,3.7
	c1.4,0.9,3,1.7,4.8,2.3c1.7,0.6,3.5,1,5.2,1.4c1.7,0.3,3.3,0.7,4.7,1.1c1.4,0.4,2.6,0.9,3.5,1.4c0.9,0.5,1.3,1.3,1.3,2.2
	c0,0.7-0.2,1.4-0.7,1.9c-0.5,0.5-1.2,0.9-2.2,1.2c-1,0.3-2.3,0.4-4.1,0.4c-2.5,0-5-0.4-7.5-1.2c-2.5-0.8-4.7-1.8-6.6-3"/>
<path class="st2" d="M93.3,33.1c1.2-2.7,1.8-5.7,1.8-8.9c0-3.2-0.6-6.2-1.8-8.8c-1.2-2.7-2.9-5-5-7c-2.1-2-4.6-3.5-7.5-4.6
	c-2.9-1.1-6-1.6-9.5-1.6s-6.6,0.5-9.5,1.6c-2.9,1.1-5.4,2.7-7.5,4.7c-2.1,2-3.8,4.4-5,7c-1.2,2.7-1.8,5.6-1.8,8.8
	c0,3.2,0.6,6.2,1.8,8.9c1.2,2.7,2.9,5.1,5,7.1c2.1,2,4.6,3.6,7.5,4.7c2.9,1.1,6,1.6,9.4,1.6c3.4,0,6.6-0.5,9.5-1.6
	c2.9-1.1,5.4-2.6,7.5-4.6C90.4,38.1,92.1,35.8,93.3,33.1z M81.9,29.2c-0.6,1.5-1.4,2.8-2.4,3.8c-1,1.1-2.3,1.9-3.7,2.5
	c-1.4,0.6-2.9,0.9-4.5,0.9c-1.6,0-3.1-0.3-4.5-0.9c-1.4-0.6-2.6-1.4-3.7-2.5c-1.1-1.1-1.9-2.4-2.4-3.8c-0.6-1.5-0.9-3.2-0.9-5
	s0.3-3.5,0.9-5c0.6-1.5,1.4-2.8,2.4-3.8c1.1-1.1,2.3-1.9,3.7-2.5c1.4-0.6,2.9-0.9,4.5-0.9c1.6,0,3.1,0.3,4.5,0.9
	c1.4,0.6,2.6,1.4,3.7,2.5c1,1.1,1.9,2.4,2.4,3.8c0.6,1.5,0.9,3.2,0.9,5S82.5,27.8,81.9,29.2z"/>
<polyline class="st2" points="173.3,45.6 173.3,22.8 192.2,45.6 202.1,45.6 202.1,2.9 190.3,2.9 190.3,25.6 171.5,2.9 161.6,2.9 
	161.6,45.6 "/>
<path class="st2" d="M36.2,87.3c-1.4,1.7-2.9,2.9-4.6,3.8c-1.7,0.9-3.5,1.3-5.5,1.3c-1.7,0-3.4-0.3-4.8-0.9
	c-1.5-0.6-2.7-1.4-3.8-2.5c-1-1.1-1.9-2.4-2.4-3.9c-0.6-1.5-0.9-3.2-0.9-5s0.3-3.5,0.9-5c0.6-1.5,1.4-2.8,2.4-3.9
	c1-1.1,2.3-1.9,3.8-2.5c1.5-0.6,3.1-0.9,4.8-0.9c2,0,3.8,0.4,5.5,1.3c1.7,0.9,3.2,2.1,4.6,3.7l7.7-7c-2.1-2.6-4.7-4.6-7.8-6
	c-3.1-1.4-6.6-2-10.6-2c-3.4,0-6.5,0.5-9.3,1.6c-2.8,1.1-5.3,2.6-7.4,4.6c-2.1,2-3.8,4.3-4.9,7C2.6,74,2,77,2,80.2
	c0,3.3,0.6,6.2,1.8,9c1.2,2.7,2.8,5.1,4.9,7c2.1,2,4.6,3.5,7.4,4.6c2.8,1.1,6,1.6,9.3,1.6c3.9,0,7.5-0.7,10.6-2.1s5.7-3.4,7.8-6"/>
<polyline class="st2" points="67.5,101.6 67.5,58.9 55.4,58.9 55.4,101.6 "/>
<polyline class="st2" points="172.9,92.2 150.5,92.2 150.5,84.4 169.5,84.4 169.5,75.4 150.5,75.4 150.5,68.2 172.1,68.2 
	172.1,58.9 138.6,58.9 138.6,101.6 172.9,101.6 "/>
<path class="st2" d="M210.1,70c1.3,1.1,1.9,2.6,1.9,4.5c0,2-0.6,3.5-1.9,4.6c-1.3,1.1-3.2,1.6-5.7,1.6h-6.6V68.4h6.6
	C207,68.4,208.9,68.9,210.1,70z"/>
<g>
	<path class="st2" d="M247.1,30.5c-1,1.8-2.4,3.1-4.2,4.1c-1.8,0.9-4,1.4-6.4,1.4h-7.5V12.5h7.5c2.5,0,4.6,0.5,6.4,1.4
		c1.8,0.9,3.2,2.3,4.2,4c1,1.7,1.5,3.8,1.5,6.3C248.6,26.6,248.1,28.7,247.1,30.5z"/>
	<path class="st2" d="M216.8,35.9V2.9H237c4.7,0,8.8,0.9,12.4,2.6c3.6,1.7,6.4,4.2,8.4,7.4s3,6.9,3,11.3c0,4.4-1,8.2-3,11.4
		s-4.8,5.7-8.4,7.4c-3.6,1.7-7.7,2.6-12.4,2.6h-20.2"/>
</g>
<g>
	<path class="st2" d="M112.4,86.5c-1,1.8-2.4,3.1-4.2,4.1c-1.8,0.9-4,1.4-6.4,1.4h-7.5V68.5h7.5c2.5,0,4.6,0.5,6.4,1.4
		c1.8,0.9,3.2,2.3,4.2,4c1,1.7,1.5,3.8,1.5,6.3C113.9,82.6,113.4,84.7,112.4,86.5z"/>
	<path class="st2" d="M82.2,91.9V58.9h20.2c4.7,0,8.8,0.9,12.4,2.6c3.6,1.7,6.4,4.2,8.4,7.4s3,6.9,3,11.3c0,4.4-1,8.2-3,11.4
		s-4.8,5.7-8.4,7.4c-3.6,1.7-7.7,2.6-12.4,2.6H82.2"/>
</g>
<path class="st2" d="M135.3,2.9v23.4c0,3.6-0.7,6.2-2.1,7.8s-3.4,2.4-5.9,2.4c-2.5,0-4.5-0.8-5.9-2.4c-1.4-1.6-2.1-4.2-2.1-7.8V2.9
	h-12.1v23.7c0,6.3,1.8,11.2,5.3,14.6c3.5,3.5,8.4,5.2,14.7,5.2c6.3,0,11.2-1.7,14.7-5.2c3.6-3.5,5.3-8.3,5.3-14.6V2.9"/>
<path class="st3" d="M288.8,92.2c-9,0-17.7-3.5-17.7-11.5c0-3.9,2.3-8.1,7-8.1c6.1,0,8,3.8,8,3.8c2.7-4.7-0.2-13.4-11.2-13.4
	c-23.6,0-25.4,29.2-38.4,29.2"/>
<path class="st2" d="M210.1,70c1.3,1.1,1.9,2.6,1.9,4.5c0,2-0.6,3.5-1.9,4.6c-1.3,1.1-3.2,1.6-5.7,1.6h-6.6V68.4h6.6
	C207,68.4,208.9,68.9,210.1,70z"/>
<path class="st4" d="M236.5,92.2h-18l-2.8-4c2.6-1.2,4.6-2.9,6.1-5.1c1.5-2.3,2.3-5.1,2.3-8.4c0-3.2-0.8-6-2.3-8.4s-3.7-4.2-6.6-5.5
	c-2.8-1.3-6.2-1.9-10.1-1.9h-19.5v42.7h12.1V90.2h6.5l7.7,11.3h166.2"/>
<g>
	<path class="st5" d="M299,91.8c13.2-21.2,19.7-37.6,20.7-59.6"/>
	<g>
		<path class="st6" d="M307,77.7c-3.1,0.4-4.4-2.7-4.6-5.2c-0.1-0.3-0.3-3.1,0.3-2.5c0.6,2.1,2.8,3.2,3.8,5.1
			c0.3,0.7,0.4,1.3,0.6,2.3C307.2,77.5,307.2,77.7,307,77.7L307,77.7z"/>
	</g>
	<g>
		<path class="st6" d="M312.1,66.8c-1.9-0.1-3-1.1-3.7-2.7c-0.6-1.4-1.2-3.1-0.9-4.6c0-0.2,0.3-0.2,0.3,0c0.7,2,3,2.9,4,4.7
			c0.3,0.7,0.5,1.4,0.4,2.4C312.3,66.7,312.2,66.8,312.1,66.8L312.1,66.8z"/>
	</g>
	<g>
		<path class="st6" d="M316,55.2c-1.8-0.7-2.7-1.3-3.6-2.9c-0.9-1.3-1.8-3.2-1.3-4.9c0-0.1,0.3-0.1,0.3,0c0.7,2.4,3.4,2.8,4.6,4.9
			c0.4,0.8,0.7,1.7,0.3,2.8C316.2,55.2,316.1,55.3,316,55.2L316,55.2z"/>
	</g>
	<g>
		<path class="st6" d="M318.4,44.1c-3.5-0.2-3.2-4.4-2.4-6.7c0-0.1,0.1-0.1,0.2-0.1c0.3,0.5,0.4,1.3,0.6,1.8c0.2,0.6,0.5,1,0.8,1.5
			c0.3,0.4,0.8,0.7,0.9,1.3c0.2,0.6,0.3,1.2,0.1,2.1C318.6,44.1,318.5,44.1,318.4,44.1L318.4,44.1z"/>
	</g>
	<g>
		<path class="st6" d="M319.3,38.6c0.2-0.8,0.6-1.2,0.9-1.6c0.6-0.6,1.4-0.5,2.1-1.4c0.4-0.3,0.6-0.7,1-1.2c0.5-0.3,0.2,1.4,0.1,1.7
			c-0.4,1.8-2,3.5-4,2.6C319.3,38.8,319.3,38.7,319.3,38.6L319.3,38.6z"/>
	</g>
	<g>
		<path class="st6" d="M317.4,49.6c0.5-0.9,1-1.4,1.6-2c1.8-1.4,4.5-1.6,5.8-3.6c0-0.1,0.1-0.1,0.2-0.1c0.2,0.8-0.6,1.8-1,2.5
			c-1.5,2.1-3.7,4.4-6.5,3.4C317.4,49.8,317.4,49.7,317.4,49.6L317.4,49.6z"/>
	</g>
	<g>
		<path class="st6" d="M314.3,60.8c0.4-0.9,0.9-1.4,1.4-1.8c1-0.7,2.3-0.5,3.4-0.9c0.6-0.2,1.1-0.4,1.6-0.9c0.1-0.1,0.2-0.1,0.2,0
			c0.1,0.7-0.5,1.5-0.9,2.1c-1.4,1.8-3.4,3.2-5.6,1.8C314.3,61,314.3,60.9,314.3,60.8L314.3,60.8z"/>
	</g>
	<g>
		<path class="st6" d="M309.9,72.1c1-2.1,3-2.2,5-2.4c0.6-0.1,1.2-0.2,1.8-0.4c0.1,0,0.2,0,0.2,0.1c-0.6,1.1-1.9,2.2-3,2.9
			c-1.3,0.8-2.5,0.7-3.9,0C309.9,72.3,309.8,72.2,309.9,72.1L309.9,72.1z"/>
	</g>
	<g>
		<path class="st6" d="M303.8,83.4c1.4-2.2,3.6-2.6,5.9-3.2c0.7-0.2,1.4-0.4,2.1-0.8c0.1,0,0.2,0,0.2,0.1c0,0.9-0.7,1.7-1.3,2.3
			c-1.7,1.9-4.3,3.2-6.9,1.9C303.8,83.7,303.7,83.5,303.8,83.4L303.8,83.4z"/>
	</g>
</g>
<line class="st4" x1="288.8" y1="92.2" x2="332.9" y2="92.2"/>
<line class="st4" x1="356.7" y1="92.2" x2="378.3" y2="92.2"/>
<g>
	<path class="st6" d="M244.2,80.4c-0.4,0.6-0.9,1-1.4,1.3c-0.5,0.3-1.1,0.4-1.7,0.4c-0.6,0-1.1-0.2-1.7-0.6
		c-0.5-0.4-0.9-0.8-1.2-1.3c-0.2-0.5-0.3-1.1-0.3-1.7c0.1-0.6,0.3-1.2,0.7-1.8c0.4-0.6,0.8-1,1.3-1.2c0.5-0.3,1.1-0.3,1.6-0.2
		l-0.2,1.6c-0.4,0-0.7,0-0.9,0.2c-0.3,0.1-0.5,0.3-0.6,0.6c-0.2,0.3-0.3,0.5-0.3,0.8c0,0.3,0,0.6,0.2,0.8c0.1,0.3,0.4,0.5,0.7,0.7
		c0.3,0.2,0.6,0.3,0.9,0.4c0.3,0,0.6,0,0.8-0.2c0.3-0.1,0.5-0.3,0.7-0.6c0.2-0.2,0.3-0.5,0.3-0.8c0-0.3,0-0.6-0.2-0.9l1.5-0.7
		c0.3,0.5,0.4,1,0.4,1.6C244.8,79.3,244.6,79.8,244.2,80.4z"/>
	<path class="st6" d="M248.1,74.6c-0.4,0.6-0.8,1-1.4,1.3c-0.5,0.3-1.1,0.4-1.7,0.4c-0.6,0-1.1-0.2-1.7-0.6
		c-0.5-0.4-0.9-0.8-1.2-1.3c-0.2-0.5-0.3-1.1-0.3-1.7c0.1-0.6,0.3-1.2,0.7-1.7c0.4-0.6,0.8-1,1.4-1.3c0.5-0.3,1.1-0.4,1.7-0.4
		c0.6,0,1.1,0.2,1.7,0.6c0.5,0.4,0.9,0.8,1.2,1.3c0.2,0.5,0.3,1.1,0.3,1.7C248.7,73.5,248.5,74.1,248.1,74.6z M246.8,73.8
		c0.2-0.3,0.3-0.5,0.3-0.8c0-0.3,0-0.6-0.2-0.8c-0.1-0.3-0.4-0.5-0.7-0.7c-0.3-0.2-0.6-0.3-0.9-0.4c-0.3,0-0.6,0-0.8,0.1
		c-0.3,0.1-0.5,0.3-0.6,0.6c-0.2,0.3-0.3,0.5-0.3,0.8c0,0.3,0,0.6,0.2,0.8c0.1,0.3,0.4,0.5,0.7,0.7c0.3,0.2,0.6,0.3,0.9,0.4
		c0.3,0,0.6,0,0.8-0.1C246.4,74.2,246.6,74,246.8,73.8z"/>
	<path class="st6" d="M251.1,70.1c-0.2,0.3-0.4,0.4-0.7,0.5c-0.3,0.1-0.6,0-0.9-0.2c-0.3-0.2-0.5-0.5-0.5-0.8
		c-0.1-0.3,0-0.6,0.2-0.9c0.2-0.3,0.4-0.4,0.7-0.5c0.3-0.1,0.6,0,0.9,0.2c0.3,0.2,0.4,0.4,0.5,0.7C251.4,69.6,251.3,69.9,251.1,70.1
		z"/>
</g>
</svg>
